<?xml version="1.0" standalone="no"?>
<!DOCTYPE svg PUBLIC "-//W3C//DTD SVG 20010904//EN"
 "http://www.w3.org/TR/2001/REC-SVG-20010904/DTD/svg10.dtd">
<svg version="1.0" xmlns="http://www.w3.org/2000/svg"
 width="77.000000pt" height="67.000000pt" viewBox="0 0 77.000000 67.000000"
 preserveAspectRatio="xMidYMid meet">

<g transform="translate(0.000000,67.000000) scale(0.100000,-0.100000)"
fill="#000000" stroke="none">
<path d="M303 563 c-54 -19 -116 -88 -133 -148 -44 -157 76 -315 240 -315 128
1 229 99 230 223 0 76 -34 56 -42 -26 -13 -120 -133 -195 -249 -155 -41 13
-109 65 -109 81 1 7 67 51 148 99 81 49 165 99 186 112 l39 23 -43 47 c-65 71
-169 94 -267 59z m142 -24 c23 -6 58 -24 76 -39 30 -25 32 -30 19 -43 -27 -27
-320 -200 -327 -193 -13 12 -15 124 -4 158 15 44 68 96 117 113 48 17 64 18
119 4z"/>
<path d="M673 528 c-24 -12 -43 -25 -43 -29 0 -21 22 -15 60 16 48 40 43 44
-17 13z"/>
<path d="M105 180 c-21 -17 -33 -30 -27 -30 17 0 82 33 82 41 0 20 -21 16 -55
-11z"/>
</g>
</svg>
