<svg width="111" height="80" xmlns="http://www.w3.org/2000/svg" xml:space="preserve" enable-background="new -117.091 -257.15 842 595" version="1.1">

 <g>
  <title>Layer 1</title>
  <g id="svg_12">
   <path id="svg_1" d="m77.753,74.956c-18.373,11.135 -43.707,4.344 -55.322,-14.819c-11.454,-18.907 -5.689,-43.436 12.858,-54.671c17.986,-10.9 43.25,-4.806 54.062,13.042l1.967,3.249l-60.506,36.656c11.1,14.641 29.012,19.069 43.244,10.442c9.923,-6.008 15.327,-17.584 14.101,-30.21l-0.11,-1.12l7.096,-4.292l0.395,2.641c2.369,15.762 -4.613,31.104 -17.785,39.082l0,0zm2.938,-55.098c-10.28,-12.768 -28.226,-16.462 -41.709,-8.297c-13.42,8.135 -18.202,25.009 -11.781,40.704l53.49,-32.407z" fill="#117788"/>
   <path id="svg_10" d="m91.962,13.061c0.601,0.838 1.182,1.692 1.722,2.583l1.923,3.176c3.5,-2.1 16.59,-12.398 15.704,-13.504c-0.882,-1.103 -11.419,3.313 -19.349,7.745z" fill="#117788"/>
   <path id="svg_11" d="m17.949,62.757c-0.056,-0.094 -0.105,-0.189 -0.161,-0.28c-0.779,-1.173 -1.575,-2.49 -1.967,-3.313c-3.337,1.898 -16.661,12.358 -15.779,13.485c0.873,1.117 11.366,-3.319 19.347,-7.672c-0.496,-0.724 -0.981,-1.461 -1.44,-2.22z" fill="#117788"/>
  </g>
 </g>
</svg>